# xmcd
#
# Track frame offsets: 
#        150
#        44532
#        111876
#        150581
#        205098
#        224437
#        249085
#
# Disc length: 3486 seconds
#
# Revision: 0
# Processed by: cddbd v1.5.2PL0 Copyright (c) Steve Scherf et al.
# Submitted via: ExactAudioCopy v0.99pb4
#
DISCID=5a0d9c07
DTITLE=The Buddy Guy Blues Band - Jazz Festival Bern 2000
DYEAR=2000
DGENRE=Blues
TTITLE0=I Just Wanna Make Love To You
TTITLE1=Five Long Years
TTITLE2=Feels Like Rain
TTITLE3=Medley: Hoochie Coochie Man - Boom Boom - One Room Country Sha
TTITLE3=ck - Here My Train Accoming
TTITLE4=Texas Love Song
TTITLE5=Damn' Right, I've Got The Blues
TTITLE6=I Got My Mojo Working
EXTD=
EXTT0=
EXTT1=
EXTT2=
EXTT3=
EXTT4=
EXTT5=
EXTT6=
PLAYORDER=
